<mxfile host="app.diagrams.net" agent="Mozilla/5.0 (Windows NT 10.0; Win64; x64) AppleWebKit/537.36 (KHTML, like Gecko) Chrome/131.0.0.0 Safari/537.36" version="25.0.3">
  <diagram id="C5RBs43oDa-KdzZeNtuy" name="Page-1">
    <mxGraphModel dx="2207" dy="523" grid="1" gridSize="10" guides="1" tooltips="1" connect="1" arrows="1" fold="1" page="1" pageScale="1" pageWidth="827" pageHeight="1169" math="0" shadow="0">
      <root>
        <mxCell id="WIyWlLk6GJQsqaUBKTNV-0" />
        <mxCell id="WIyWlLk6GJQsqaUBKTNV-1" parent="WIyWlLk6GJQsqaUBKTNV-0" />
        <mxCell id="KJa5EzMdzDWsQNKUvQGp-6" style="edgeStyle=orthogonalEdgeStyle;rounded=0;orthogonalLoop=1;jettySize=auto;html=1;exitX=0.5;exitY=1;exitDx=0;exitDy=0;entryX=0.5;entryY=0;entryDx=0;entryDy=0;" edge="1" parent="WIyWlLk6GJQsqaUBKTNV-1" source="WIyWlLk6GJQsqaUBKTNV-3" target="KJa5EzMdzDWsQNKUvQGp-0">
          <mxGeometry relative="1" as="geometry" />
        </mxCell>
        <mxCell id="WIyWlLk6GJQsqaUBKTNV-3" value="&lt;font style=&quot;font-size: 10px;&quot;&gt;Receive onboard request&lt;/font&gt;" style="rounded=1;whiteSpace=wrap;html=1;fontSize=12;glass=0;strokeWidth=1;shadow=0;fillColor=#0050ef;fontColor=#ffffff;strokeColor=#001DBC;" parent="WIyWlLk6GJQsqaUBKTNV-1" vertex="1">
          <mxGeometry x="40" y="40" width="120" height="40" as="geometry" />
        </mxCell>
        <mxCell id="KJa5EzMdzDWsQNKUvQGp-5" style="edgeStyle=orthogonalEdgeStyle;rounded=0;orthogonalLoop=1;jettySize=auto;html=1;exitX=1;exitY=0.5;exitDx=0;exitDy=0;fillColor=#d5e8d4;strokeColor=#82b366;" edge="1" parent="WIyWlLk6GJQsqaUBKTNV-1" source="KJa5EzMdzDWsQNKUvQGp-0">
          <mxGeometry relative="1" as="geometry">
            <mxPoint x="200" y="159.8571428571429" as="targetPoint" />
          </mxGeometry>
        </mxCell>
        <mxCell id="KJa5EzMdzDWsQNKUvQGp-39" value="&lt;font style=&quot;font-size: 10px;&quot; color=&quot;#00cc00&quot;&gt;Yes&lt;/font&gt;" style="edgeLabel;html=1;align=center;verticalAlign=middle;resizable=0;points=[];" vertex="1" connectable="0" parent="KJa5EzMdzDWsQNKUvQGp-5">
          <mxGeometry x="-0.0384" relative="1" as="geometry">
            <mxPoint x="-10" y="-10" as="offset" />
          </mxGeometry>
        </mxCell>
        <mxCell id="KJa5EzMdzDWsQNKUvQGp-7" style="edgeStyle=orthogonalEdgeStyle;rounded=0;orthogonalLoop=1;jettySize=auto;html=1;exitX=0.5;exitY=1;exitDx=0;exitDy=0;fillColor=#f8cecc;strokeColor=#b85450;" edge="1" parent="WIyWlLk6GJQsqaUBKTNV-1" source="KJa5EzMdzDWsQNKUvQGp-0">
          <mxGeometry relative="1" as="geometry">
            <mxPoint x="100" y="240" as="targetPoint" />
          </mxGeometry>
        </mxCell>
        <mxCell id="KJa5EzMdzDWsQNKUvQGp-41" value="&lt;font style=&quot;font-size: 10px;&quot; color=&quot;#d7807e&quot;&gt;No&lt;/font&gt;" style="edgeLabel;html=1;align=center;verticalAlign=middle;resizable=0;points=[];" vertex="1" connectable="0" parent="KJa5EzMdzDWsQNKUvQGp-7">
          <mxGeometry x="-0.0811" relative="1" as="geometry">
            <mxPoint y="-9" as="offset" />
          </mxGeometry>
        </mxCell>
        <mxCell id="KJa5EzMdzDWsQNKUvQGp-0" value="&lt;font style=&quot;font-size: 10px;&quot;&gt;Is request in your&lt;br&gt;field?&lt;/font&gt;" style="rhombus;whiteSpace=wrap;html=1;fillColor=#ffe6cc;strokeColor=#d79b00;" vertex="1" parent="WIyWlLk6GJQsqaUBKTNV-1">
          <mxGeometry x="40" y="120" width="120" height="80" as="geometry" />
        </mxCell>
        <mxCell id="KJa5EzMdzDWsQNKUvQGp-8" value="&lt;font style=&quot;font-size: 10px;&quot;&gt;Assign to correct C&amp;amp;P team-member&lt;/font&gt;" style="rounded=1;whiteSpace=wrap;html=1;fontSize=12;glass=0;strokeWidth=1;shadow=0;fillColor=#dae8fc;strokeColor=#6c8ebf;gradientColor=#7ea6e0;" vertex="1" parent="WIyWlLk6GJQsqaUBKTNV-1">
          <mxGeometry x="40" y="240" width="120" height="40" as="geometry" />
        </mxCell>
        <mxCell id="KJa5EzMdzDWsQNKUvQGp-9" value="&lt;span style=&quot;font-size: 10px;&quot;&gt;Are all required fields&lt;/span&gt;&lt;div&gt;&lt;span style=&quot;font-size: 10px;&quot;&gt;entered correctly?&lt;/span&gt;&lt;/div&gt;" style="rhombus;whiteSpace=wrap;html=1;fillColor=#ffe6cc;strokeColor=#d79b00;" vertex="1" parent="WIyWlLk6GJQsqaUBKTNV-1">
          <mxGeometry x="200" y="120" width="120" height="80" as="geometry" />
        </mxCell>
        <mxCell id="KJa5EzMdzDWsQNKUvQGp-49" style="edgeStyle=orthogonalEdgeStyle;rounded=0;orthogonalLoop=1;jettySize=auto;html=1;exitX=0.5;exitY=1;exitDx=0;exitDy=0;entryX=1;entryY=0.5;entryDx=0;entryDy=0;fillColor=#f8cecc;gradientColor=#ea6b66;strokeColor=#b85450;" edge="1" parent="WIyWlLk6GJQsqaUBKTNV-1" source="KJa5EzMdzDWsQNKUvQGp-12" target="KJa5EzMdzDWsQNKUvQGp-36">
          <mxGeometry relative="1" as="geometry" />
        </mxCell>
        <mxCell id="KJa5EzMdzDWsQNKUvQGp-12" value="&lt;font style=&quot;&quot;&gt;&lt;span style=&quot;font-size: 10px;&quot;&gt;Message Requestor asking for required info &lt;/span&gt;&lt;b style=&quot;&quot;&gt;&lt;font style=&quot;font-size: 9px;&quot;&gt;&lt;u style=&quot;&quot;&gt;(Who&lt;/u&gt;?&lt;u style=&quot;&quot;&gt;,&lt;/u&gt; &lt;u style=&quot;&quot;&gt;What&lt;/u&gt;?&lt;u style=&quot;&quot;&gt;,&lt;/u&gt; &lt;u style=&quot;&quot;&gt;When&lt;/u&gt;?&lt;u style=&quot;&quot;&gt;, Where&lt;/u&gt;?, &lt;u style=&quot;&quot;&gt;Why&lt;/u&gt;?)&lt;/font&gt;&lt;/b&gt;&lt;/font&gt;" style="rounded=1;whiteSpace=wrap;html=1;fontSize=12;glass=0;strokeWidth=1;shadow=0;fillColor=#f8cecc;strokeColor=#b85450;" vertex="1" parent="WIyWlLk6GJQsqaUBKTNV-1">
          <mxGeometry x="200" y="240" width="120" height="80" as="geometry" />
        </mxCell>
        <mxCell id="KJa5EzMdzDWsQNKUvQGp-13" style="edgeStyle=orthogonalEdgeStyle;rounded=0;orthogonalLoop=1;jettySize=auto;html=1;exitX=0.5;exitY=1;exitDx=0;exitDy=0;fillColor=#f8cecc;strokeColor=#b85450;" edge="1" parent="WIyWlLk6GJQsqaUBKTNV-1">
          <mxGeometry relative="1" as="geometry">
            <mxPoint x="259.71000000000004" y="240" as="targetPoint" />
            <mxPoint x="259.71000000000004" y="200" as="sourcePoint" />
          </mxGeometry>
        </mxCell>
        <mxCell id="KJa5EzMdzDWsQNKUvQGp-19" style="edgeStyle=orthogonalEdgeStyle;rounded=0;orthogonalLoop=1;jettySize=auto;html=1;exitX=1;exitY=0.5;exitDx=0;exitDy=0;entryX=0;entryY=0.5;entryDx=0;entryDy=0;" edge="1" parent="WIyWlLk6GJQsqaUBKTNV-1" source="KJa5EzMdzDWsQNKUvQGp-14" target="KJa5EzMdzDWsQNKUvQGp-18">
          <mxGeometry relative="1" as="geometry" />
        </mxCell>
        <mxCell id="KJa5EzMdzDWsQNKUvQGp-23" value="&lt;font style=&quot;font-size: 10px;&quot;&gt;Services&lt;/font&gt;" style="edgeLabel;html=1;align=center;verticalAlign=middle;resizable=0;points=[];" vertex="1" connectable="0" parent="KJa5EzMdzDWsQNKUvQGp-19">
          <mxGeometry x="-0.0571" y="2" relative="1" as="geometry">
            <mxPoint y="-8" as="offset" />
          </mxGeometry>
        </mxCell>
        <mxCell id="KJa5EzMdzDWsQNKUvQGp-14" value="&lt;span style=&quot;font-size: 10px;&quot;&gt;Goods or Services?&lt;/span&gt;" style="rhombus;whiteSpace=wrap;html=1;fillColor=#ffe6cc;strokeColor=#d79b00;" vertex="1" parent="WIyWlLk6GJQsqaUBKTNV-1">
          <mxGeometry x="360" y="120" width="120" height="80" as="geometry" />
        </mxCell>
        <mxCell id="KJa5EzMdzDWsQNKUvQGp-15" style="edgeStyle=orthogonalEdgeStyle;rounded=0;orthogonalLoop=1;jettySize=auto;html=1;exitX=1;exitY=0.5;exitDx=0;exitDy=0;fillColor=#d5e8d4;strokeColor=#82b366;" edge="1" parent="WIyWlLk6GJQsqaUBKTNV-1">
          <mxGeometry relative="1" as="geometry">
            <mxPoint x="360" y="159.6871428571429" as="targetPoint" />
            <mxPoint x="320" y="159.83" as="sourcePoint" />
          </mxGeometry>
        </mxCell>
        <mxCell id="KJa5EzMdzDWsQNKUvQGp-16" value="&lt;font style=&quot;font-size: 10px;&quot;&gt;Ask Requestor for Info on Supply chain, Where goods are made, Cost of goods, And if requestor has checked our current Vendors for supply of these goods&lt;/font&gt;" style="rounded=1;whiteSpace=wrap;html=1;fontSize=12;glass=0;strokeWidth=1;shadow=0;" vertex="1" parent="WIyWlLk6GJQsqaUBKTNV-1">
          <mxGeometry x="360" y="240" width="120" height="120" as="geometry" />
        </mxCell>
        <mxCell id="KJa5EzMdzDWsQNKUvQGp-17" value="&lt;font style=&quot;font-size: 10px;&quot;&gt;Goods&lt;/font&gt;" style="edgeStyle=orthogonalEdgeStyle;rounded=0;orthogonalLoop=1;jettySize=auto;html=1;exitX=0.5;exitY=1;exitDx=0;exitDy=0;entryX=0.5;entryY=0;entryDx=0;entryDy=0;" edge="1" parent="WIyWlLk6GJQsqaUBKTNV-1" target="KJa5EzMdzDWsQNKUvQGp-16">
          <mxGeometry x="-0.5024" relative="1" as="geometry">
            <mxPoint x="419.71000000000004" y="240" as="targetPoint" />
            <mxPoint x="419.71000000000004" y="200" as="sourcePoint" />
            <mxPoint as="offset" />
          </mxGeometry>
        </mxCell>
        <mxCell id="KJa5EzMdzDWsQNKUvQGp-21" style="edgeStyle=orthogonalEdgeStyle;rounded=0;orthogonalLoop=1;jettySize=auto;html=1;exitX=1;exitY=0.5;exitDx=0;exitDy=0;entryX=0;entryY=0.5;entryDx=0;entryDy=0;" edge="1" parent="WIyWlLk6GJQsqaUBKTNV-1" source="KJa5EzMdzDWsQNKUvQGp-18" target="KJa5EzMdzDWsQNKUvQGp-20">
          <mxGeometry relative="1" as="geometry" />
        </mxCell>
        <mxCell id="KJa5EzMdzDWsQNKUvQGp-22" value="&lt;font style=&quot;font-size: 10px;&quot;&gt;On-Site&lt;/font&gt;" style="edgeLabel;html=1;align=center;verticalAlign=middle;resizable=0;points=[];" vertex="1" connectable="0" parent="KJa5EzMdzDWsQNKUvQGp-21">
          <mxGeometry x="-0.0286" y="-2" relative="1" as="geometry">
            <mxPoint y="-12" as="offset" />
          </mxGeometry>
        </mxCell>
        <mxCell id="KJa5EzMdzDWsQNKUvQGp-25" style="edgeStyle=orthogonalEdgeStyle;rounded=0;orthogonalLoop=1;jettySize=auto;html=1;exitX=0.5;exitY=1;exitDx=0;exitDy=0;entryX=0.5;entryY=0;entryDx=0;entryDy=0;" edge="1" parent="WIyWlLk6GJQsqaUBKTNV-1" source="KJa5EzMdzDWsQNKUvQGp-18" target="KJa5EzMdzDWsQNKUvQGp-24">
          <mxGeometry relative="1" as="geometry" />
        </mxCell>
        <mxCell id="KJa5EzMdzDWsQNKUvQGp-61" value="&lt;font style=&quot;font-size: 10px;&quot;&gt;Off-Site&lt;/font&gt;" style="edgeLabel;html=1;align=center;verticalAlign=middle;resizable=0;points=[];" vertex="1" connectable="0" parent="KJa5EzMdzDWsQNKUvQGp-25">
          <mxGeometry x="-0.7505" relative="1" as="geometry">
            <mxPoint y="-16" as="offset" />
          </mxGeometry>
        </mxCell>
        <mxCell id="KJa5EzMdzDWsQNKUvQGp-18" value="&lt;span style=&quot;font-size: 10px;&quot;&gt;On-Site or Off-Site?&lt;/span&gt;" style="rhombus;whiteSpace=wrap;html=1;fillColor=#ffe6cc;strokeColor=#d79b00;" vertex="1" parent="WIyWlLk6GJQsqaUBKTNV-1">
          <mxGeometry x="520" y="120" width="120" height="80" as="geometry" />
        </mxCell>
        <mxCell id="KJa5EzMdzDWsQNKUvQGp-29" style="edgeStyle=orthogonalEdgeStyle;rounded=0;orthogonalLoop=1;jettySize=auto;html=1;exitX=0.5;exitY=1;exitDx=0;exitDy=0;entryX=0.5;entryY=0;entryDx=0;entryDy=0;" edge="1" parent="WIyWlLk6GJQsqaUBKTNV-1" source="KJa5EzMdzDWsQNKUvQGp-20" target="KJa5EzMdzDWsQNKUvQGp-28">
          <mxGeometry relative="1" as="geometry" />
        </mxCell>
        <mxCell id="KJa5EzMdzDWsQNKUvQGp-62" value="&lt;span style=&quot;font-size: 10px;&quot;&gt;Managed&lt;/span&gt;" style="edgeLabel;html=1;align=center;verticalAlign=middle;resizable=0;points=[];" vertex="1" connectable="0" parent="KJa5EzMdzDWsQNKUvQGp-29">
          <mxGeometry x="0.01" y="1" relative="1" as="geometry">
            <mxPoint y="-10" as="offset" />
          </mxGeometry>
        </mxCell>
        <mxCell id="KJa5EzMdzDWsQNKUvQGp-32" style="edgeStyle=orthogonalEdgeStyle;rounded=0;orthogonalLoop=1;jettySize=auto;html=1;exitX=1;exitY=0.5;exitDx=0;exitDy=0;entryX=0.5;entryY=0;entryDx=0;entryDy=0;" edge="1" parent="WIyWlLk6GJQsqaUBKTNV-1" source="KJa5EzMdzDWsQNKUvQGp-20" target="KJa5EzMdzDWsQNKUvQGp-31">
          <mxGeometry relative="1" as="geometry" />
        </mxCell>
        <mxCell id="KJa5EzMdzDWsQNKUvQGp-34" value="&lt;font style=&quot;font-size: 10px;&quot;&gt;Monitored&lt;/font&gt;" style="edgeLabel;html=1;align=center;verticalAlign=middle;resizable=0;points=[];" vertex="1" connectable="0" parent="KJa5EzMdzDWsQNKUvQGp-32">
          <mxGeometry x="-0.5928" relative="1" as="geometry">
            <mxPoint x="-5" y="-10" as="offset" />
          </mxGeometry>
        </mxCell>
        <mxCell id="KJa5EzMdzDWsQNKUvQGp-20" value="&lt;span style=&quot;font-size: 10px;&quot;&gt;Risk = Managed&lt;br&gt;or Monitored?&lt;/span&gt;" style="rhombus;whiteSpace=wrap;html=1;fillColor=#ffe6cc;strokeColor=#d79b00;" vertex="1" parent="WIyWlLk6GJQsqaUBKTNV-1">
          <mxGeometry x="680" y="120" width="120" height="80" as="geometry" />
        </mxCell>
        <mxCell id="KJa5EzMdzDWsQNKUvQGp-63" style="edgeStyle=orthogonalEdgeStyle;rounded=0;orthogonalLoop=1;jettySize=auto;html=1;exitX=1;exitY=0.5;exitDx=0;exitDy=0;fillColor=#d5e8d4;strokeColor=#82b366;" edge="1" parent="WIyWlLk6GJQsqaUBKTNV-1" source="KJa5EzMdzDWsQNKUvQGp-24">
          <mxGeometry relative="1" as="geometry">
            <mxPoint x="680" y="450.20000000000005" as="targetPoint" />
          </mxGeometry>
        </mxCell>
        <mxCell id="KJa5EzMdzDWsQNKUvQGp-65" value="&lt;font color=&quot;#00cc00&quot; style=&quot;font-size: 10px;&quot;&gt;Yes&lt;/font&gt;" style="edgeLabel;html=1;align=center;verticalAlign=middle;resizable=0;points=[];" vertex="1" connectable="0" parent="KJa5EzMdzDWsQNKUvQGp-63">
          <mxGeometry x="0.3122" relative="1" as="geometry">
            <mxPoint x="-16" y="-11" as="offset" />
          </mxGeometry>
        </mxCell>
        <mxCell id="KJa5EzMdzDWsQNKUvQGp-89" style="edgeStyle=orthogonalEdgeStyle;rounded=0;orthogonalLoop=1;jettySize=auto;html=1;exitX=0.5;exitY=1;exitDx=0;exitDy=0;entryX=0.5;entryY=0;entryDx=0;entryDy=0;fillColor=#f8cecc;strokeColor=#b85450;" edge="1" parent="WIyWlLk6GJQsqaUBKTNV-1" source="KJa5EzMdzDWsQNKUvQGp-24" target="KJa5EzMdzDWsQNKUvQGp-86">
          <mxGeometry relative="1" as="geometry" />
        </mxCell>
        <mxCell id="KJa5EzMdzDWsQNKUvQGp-90" value="&lt;font style=&quot;font-size: 10px;&quot; color=&quot;#ea6b66&quot;&gt;No&lt;/font&gt;" style="edgeLabel;html=1;align=center;verticalAlign=middle;resizable=0;points=[];" vertex="1" connectable="0" parent="KJa5EzMdzDWsQNKUvQGp-89">
          <mxGeometry x="-0.24" y="-1" relative="1" as="geometry">
            <mxPoint x="177" y="-14" as="offset" />
          </mxGeometry>
        </mxCell>
        <mxCell id="KJa5EzMdzDWsQNKUvQGp-24" value="&lt;font style=&quot;font-size: 9px;&quot;&gt;Does request&amp;nbsp;&lt;/font&gt;&lt;div&gt;&lt;font style=&quot;font-size: 9px;&quot;&gt;relate&amp;nbsp;&lt;/font&gt;&lt;font style=&quot;background-color: initial; font-size: 9px;&quot;&gt;to&amp;nbsp;&lt;/font&gt;&lt;span style=&quot;background-color: initial; font-size: 9px;&quot;&gt;internal teams&lt;/span&gt;&lt;div&gt;&lt;div&gt;&lt;font style=&quot;font-size: 9px;&quot;&gt;expertise?&lt;/font&gt;&lt;/div&gt;&lt;/div&gt;&lt;/div&gt;" style="rhombus;whiteSpace=wrap;html=1;fillColor=#ffe6cc;strokeColor=#d79b00;" vertex="1" parent="WIyWlLk6GJQsqaUBKTNV-1">
          <mxGeometry x="520" y="410" width="120" height="80" as="geometry" />
        </mxCell>
        <mxCell id="KJa5EzMdzDWsQNKUvQGp-59" style="edgeStyle=orthogonalEdgeStyle;rounded=0;orthogonalLoop=1;jettySize=auto;html=1;exitX=0.5;exitY=1;exitDx=0;exitDy=0;entryX=0.5;entryY=0;entryDx=0;entryDy=0;" edge="1" parent="WIyWlLk6GJQsqaUBKTNV-1" source="KJa5EzMdzDWsQNKUvQGp-28" target="KJa5EzMdzDWsQNKUvQGp-24">
          <mxGeometry relative="1" as="geometry">
            <Array as="points">
              <mxPoint x="740" y="380" />
              <mxPoint x="580" y="380" />
            </Array>
          </mxGeometry>
        </mxCell>
        <mxCell id="KJa5EzMdzDWsQNKUvQGp-28" value="&lt;font style=&quot;font-size: 10px;&quot;&gt;Health and Safety procedures, documentation, and Insurances are automatically begun and sent to relevant teams&lt;/font&gt;" style="rounded=1;whiteSpace=wrap;html=1;fontSize=12;glass=0;strokeWidth=1;shadow=0;" vertex="1" parent="WIyWlLk6GJQsqaUBKTNV-1">
          <mxGeometry x="680" y="240" width="120" height="120" as="geometry" />
        </mxCell>
        <mxCell id="KJa5EzMdzDWsQNKUvQGp-60" style="edgeStyle=orthogonalEdgeStyle;rounded=0;orthogonalLoop=1;jettySize=auto;html=1;exitX=0.5;exitY=1;exitDx=0;exitDy=0;" edge="1" parent="WIyWlLk6GJQsqaUBKTNV-1" source="KJa5EzMdzDWsQNKUvQGp-31">
          <mxGeometry relative="1" as="geometry">
            <mxPoint x="580" y="410" as="targetPoint" />
            <Array as="points">
              <mxPoint x="880" y="380" />
              <mxPoint x="580" y="380" />
            </Array>
          </mxGeometry>
        </mxCell>
        <mxCell id="KJa5EzMdzDWsQNKUvQGp-31" value="&lt;font style=&quot;font-size: 10px;&quot;&gt;Legal documentation,&amp;nbsp;&lt;/font&gt;&lt;div&gt;&lt;font style=&quot;font-size: 10px;&quot;&gt;and Insurance&lt;/font&gt;&lt;span style=&quot;font-size: 10px; background-color: initial;&quot;&gt;s are automatically begun&amp;nbsp;&lt;/span&gt;&lt;/div&gt;&lt;div&gt;&lt;font style=&quot;font-size: 10px;&quot;&gt;and sent to&amp;nbsp;&lt;/font&gt;&lt;/div&gt;&lt;div&gt;&lt;font style=&quot;font-size: 10px;&quot;&gt;relevant teams.&lt;/font&gt;&lt;/div&gt;" style="rounded=1;whiteSpace=wrap;html=1;fontSize=12;glass=0;strokeWidth=1;shadow=0;" vertex="1" parent="WIyWlLk6GJQsqaUBKTNV-1">
          <mxGeometry x="820" y="240" width="120" height="80" as="geometry" />
        </mxCell>
        <mxCell id="KJa5EzMdzDWsQNKUvQGp-38" style="edgeStyle=orthogonalEdgeStyle;rounded=0;orthogonalLoop=1;jettySize=auto;html=1;exitX=0;exitY=0.5;exitDx=0;exitDy=0;entryX=0;entryY=0.5;entryDx=0;entryDy=0;fillColor=#d5e8d4;strokeColor=#82b366;" edge="1" parent="WIyWlLk6GJQsqaUBKTNV-1" source="KJa5EzMdzDWsQNKUvQGp-36" target="KJa5EzMdzDWsQNKUvQGp-0">
          <mxGeometry relative="1" as="geometry" />
        </mxCell>
        <mxCell id="KJa5EzMdzDWsQNKUvQGp-46" style="edgeStyle=orthogonalEdgeStyle;rounded=0;orthogonalLoop=1;jettySize=auto;html=1;exitX=0.5;exitY=1;exitDx=0;exitDy=0;entryX=0.5;entryY=0;entryDx=0;entryDy=0;fillColor=#f8cecc;strokeColor=#b85450;" edge="1" parent="WIyWlLk6GJQsqaUBKTNV-1" source="KJa5EzMdzDWsQNKUvQGp-36" target="KJa5EzMdzDWsQNKUvQGp-45">
          <mxGeometry relative="1" as="geometry" />
        </mxCell>
        <mxCell id="KJa5EzMdzDWsQNKUvQGp-36" value="&lt;font style=&quot;font-size: 9px;&quot;&gt;Did requestor reply&lt;/font&gt;&lt;div&gt;&lt;font style=&quot;font-size: 9px;&quot;&gt;within&amp;nbsp;&lt;/font&gt;&lt;span style=&quot;font-size: 9px; background-color: initial;&quot;&gt;time frame?&lt;/span&gt;&lt;/div&gt;" style="rhombus;whiteSpace=wrap;html=1;" vertex="1" parent="WIyWlLk6GJQsqaUBKTNV-1">
          <mxGeometry x="40" y="320" width="120" height="80" as="geometry" />
        </mxCell>
        <mxCell id="KJa5EzMdzDWsQNKUvQGp-40" value="&lt;font style=&quot;font-size: 10px;&quot; color=&quot;#00cc00&quot;&gt;Yes&lt;/font&gt;" style="edgeLabel;html=1;align=center;verticalAlign=middle;resizable=0;points=[];" vertex="1" connectable="0" parent="WIyWlLk6GJQsqaUBKTNV-1">
          <mxGeometry x="330.0044444444446" y="150" as="geometry" />
        </mxCell>
        <mxCell id="KJa5EzMdzDWsQNKUvQGp-43" value="&lt;font style=&quot;font-size: 10px;&quot; color=&quot;#d7807e&quot;&gt;No&lt;/font&gt;" style="edgeLabel;html=1;align=center;verticalAlign=middle;resizable=0;points=[];" vertex="1" connectable="0" parent="WIyWlLk6GJQsqaUBKTNV-1">
          <mxGeometry x="260" y="220.00111111111107" as="geometry">
            <mxPoint y="-10" as="offset" />
          </mxGeometry>
        </mxCell>
        <mxCell id="KJa5EzMdzDWsQNKUvQGp-44" value="&lt;font style=&quot;font-size: 10px;&quot; color=&quot;#00cc00&quot;&gt;Yes&lt;/font&gt;" style="edgeLabel;html=1;align=center;verticalAlign=middle;resizable=0;points=[];" vertex="1" connectable="0" parent="WIyWlLk6GJQsqaUBKTNV-1">
          <mxGeometry x="20.004444444444573" y="350" as="geometry" />
        </mxCell>
        <mxCell id="KJa5EzMdzDWsQNKUvQGp-45" value="&lt;span style=&quot;font-size: 10px;&quot;&gt;Ivalua Automatically&lt;/span&gt;&lt;div&gt;&lt;span style=&quot;font-size: 10px;&quot;&gt;closes ticket&lt;/span&gt;&lt;/div&gt;" style="rounded=1;whiteSpace=wrap;html=1;fontSize=12;glass=0;strokeWidth=1;shadow=0;fillColor=#fa6800;strokeColor=#C73500;fontColor=#000000;" vertex="1" parent="WIyWlLk6GJQsqaUBKTNV-1">
          <mxGeometry x="40" y="430" width="120" height="40" as="geometry" />
        </mxCell>
        <mxCell id="KJa5EzMdzDWsQNKUvQGp-47" value="&lt;font style=&quot;font-size: 10px;&quot; color=&quot;#d7807e&quot;&gt;No&lt;/font&gt;" style="edgeLabel;html=1;align=center;verticalAlign=middle;resizable=0;points=[];" vertex="1" connectable="0" parent="WIyWlLk6GJQsqaUBKTNV-1">
          <mxGeometry x="100" y="410.0011111111111" as="geometry" />
        </mxCell>
        <mxCell id="KJa5EzMdzDWsQNKUvQGp-56" style="edgeStyle=orthogonalEdgeStyle;rounded=0;orthogonalLoop=1;jettySize=auto;html=1;exitX=0;exitY=0.5;exitDx=0;exitDy=0;entryX=1;entryY=0.5;entryDx=0;entryDy=0;fillColor=#f8cecc;strokeColor=#b85450;" edge="1" parent="WIyWlLk6GJQsqaUBKTNV-1" source="KJa5EzMdzDWsQNKUvQGp-51" target="KJa5EzMdzDWsQNKUvQGp-45">
          <mxGeometry relative="1" as="geometry" />
        </mxCell>
        <mxCell id="KJa5EzMdzDWsQNKUvQGp-76" value="&lt;font color=&quot;#ea6b66&quot; style=&quot;font-size: 10px;&quot;&gt;No&lt;/font&gt;" style="edgeLabel;html=1;align=center;verticalAlign=middle;resizable=0;points=[];" vertex="1" connectable="0" parent="KJa5EzMdzDWsQNKUvQGp-56">
          <mxGeometry x="0.016" relative="1" as="geometry">
            <mxPoint x="92" y="-10" as="offset" />
          </mxGeometry>
        </mxCell>
        <mxCell id="KJa5EzMdzDWsQNKUvQGp-51" value="&lt;font style=&quot;font-size: 9px;&quot;&gt;Did requestor reply&lt;/font&gt;&lt;div&gt;&lt;font style=&quot;font-size: 9px;&quot;&gt;within&amp;nbsp;&lt;/font&gt;&lt;span style=&quot;font-size: 9px; background-color: initial;&quot;&gt;time frame?&lt;/span&gt;&lt;/div&gt;" style="rhombus;whiteSpace=wrap;html=1;" vertex="1" parent="WIyWlLk6GJQsqaUBKTNV-1">
          <mxGeometry x="360" y="410" width="120" height="80" as="geometry" />
        </mxCell>
        <mxCell id="KJa5EzMdzDWsQNKUvQGp-52" style="edgeStyle=orthogonalEdgeStyle;rounded=0;orthogonalLoop=1;jettySize=auto;html=1;exitX=0.5;exitY=1;exitDx=0;exitDy=0;entryX=0.5;entryY=0;entryDx=0;entryDy=0;" edge="1" parent="WIyWlLk6GJQsqaUBKTNV-1" source="KJa5EzMdzDWsQNKUvQGp-16" target="KJa5EzMdzDWsQNKUvQGp-51">
          <mxGeometry relative="1" as="geometry" />
        </mxCell>
        <mxCell id="KJa5EzMdzDWsQNKUvQGp-53" style="edgeStyle=orthogonalEdgeStyle;rounded=0;orthogonalLoop=1;jettySize=auto;html=1;exitX=1;exitY=0.5;exitDx=0;exitDy=0;entryX=0;entryY=0.5;entryDx=0;entryDy=0;fillColor=#d5e8d4;strokeColor=#82b366;" edge="1" parent="WIyWlLk6GJQsqaUBKTNV-1" source="KJa5EzMdzDWsQNKUvQGp-51" target="KJa5EzMdzDWsQNKUvQGp-24">
          <mxGeometry relative="1" as="geometry" />
        </mxCell>
        <mxCell id="KJa5EzMdzDWsQNKUvQGp-58" value="&lt;font style=&quot;font-size: 10px;&quot; color=&quot;#00cc00&quot;&gt;Yes&lt;/font&gt;" style="edgeLabel;html=1;align=center;verticalAlign=middle;resizable=0;points=[];" vertex="1" connectable="0" parent="KJa5EzMdzDWsQNKUvQGp-53">
          <mxGeometry x="-0.37" relative="1" as="geometry">
            <mxPoint x="-3" y="-10" as="offset" />
          </mxGeometry>
        </mxCell>
        <mxCell id="KJa5EzMdzDWsQNKUvQGp-64" value="&lt;font style=&quot;font-size: 10px;&quot;&gt;Ask said team for guidance on next steps of approval process&lt;/font&gt;" style="rounded=1;whiteSpace=wrap;html=1;fontSize=12;glass=0;strokeWidth=1;shadow=0;fillColor=#d5e8d4;strokeColor=#82b366;" vertex="1" parent="WIyWlLk6GJQsqaUBKTNV-1">
          <mxGeometry x="680" y="430" width="120" height="40" as="geometry" />
        </mxCell>
        <mxCell id="KJa5EzMdzDWsQNKUvQGp-81" style="edgeStyle=orthogonalEdgeStyle;rounded=0;orthogonalLoop=1;jettySize=auto;html=1;exitX=1;exitY=0.5;exitDx=0;exitDy=0;entryX=0;entryY=0.5;entryDx=0;entryDy=0;fillColor=#f8cecc;strokeColor=#b85450;" edge="1" parent="WIyWlLk6GJQsqaUBKTNV-1" source="KJa5EzMdzDWsQNKUvQGp-66" target="KJa5EzMdzDWsQNKUvQGp-70">
          <mxGeometry relative="1" as="geometry" />
        </mxCell>
        <mxCell id="KJa5EzMdzDWsQNKUvQGp-82" value="&lt;font style=&quot;font-size: 10px;&quot; color=&quot;#ea6b66&quot;&gt;No&lt;/font&gt;" style="edgeLabel;html=1;align=center;verticalAlign=middle;resizable=0;points=[];" vertex="1" connectable="0" parent="KJa5EzMdzDWsQNKUvQGp-81">
          <mxGeometry x="-0.12" relative="1" as="geometry">
            <mxPoint x="-8" y="-10" as="offset" />
          </mxGeometry>
        </mxCell>
        <mxCell id="KJa5EzMdzDWsQNKUvQGp-84" value="" style="edgeStyle=orthogonalEdgeStyle;rounded=0;orthogonalLoop=1;jettySize=auto;html=1;fillColor=#d5e8d4;strokeColor=#82b366;" edge="1" parent="WIyWlLk6GJQsqaUBKTNV-1" source="KJa5EzMdzDWsQNKUvQGp-66" target="KJa5EzMdzDWsQNKUvQGp-83">
          <mxGeometry relative="1" as="geometry" />
        </mxCell>
        <mxCell id="KJa5EzMdzDWsQNKUvQGp-85" value="&lt;font style=&quot;font-size: 10px;&quot; color=&quot;#00cc00&quot;&gt;Yes&lt;/font&gt;" style="edgeLabel;html=1;align=center;verticalAlign=middle;resizable=0;points=[];" vertex="1" connectable="0" parent="KJa5EzMdzDWsQNKUvQGp-84">
          <mxGeometry x="0.336" relative="1" as="geometry">
            <mxPoint y="-4" as="offset" />
          </mxGeometry>
        </mxCell>
        <mxCell id="KJa5EzMdzDWsQNKUvQGp-66" value="&lt;font style=&quot;font-size: 9px;&quot;&gt;Does Team have all&lt;/font&gt;&lt;div&gt;&lt;font style=&quot;font-size: 9px;&quot;&gt;the info they need?&lt;/font&gt;&lt;/div&gt;" style="rhombus;whiteSpace=wrap;html=1;" vertex="1" parent="WIyWlLk6GJQsqaUBKTNV-1">
          <mxGeometry x="840" y="410" width="120" height="80" as="geometry" />
        </mxCell>
        <mxCell id="KJa5EzMdzDWsQNKUvQGp-67" style="edgeStyle=orthogonalEdgeStyle;rounded=0;orthogonalLoop=1;jettySize=auto;html=1;exitX=1;exitY=0.5;exitDx=0;exitDy=0;" edge="1" parent="WIyWlLk6GJQsqaUBKTNV-1">
          <mxGeometry relative="1" as="geometry">
            <mxPoint x="840" y="449.84000000000003" as="targetPoint" />
            <mxPoint x="800" y="449.64" as="sourcePoint" />
          </mxGeometry>
        </mxCell>
        <mxCell id="KJa5EzMdzDWsQNKUvQGp-73" style="edgeStyle=orthogonalEdgeStyle;rounded=0;orthogonalLoop=1;jettySize=auto;html=1;exitX=0.5;exitY=0;exitDx=0;exitDy=0;entryX=0.5;entryY=1;entryDx=0;entryDy=0;fillColor=#f8cecc;strokeColor=#b85450;" edge="1" parent="WIyWlLk6GJQsqaUBKTNV-1" source="KJa5EzMdzDWsQNKUvQGp-70" target="KJa5EzMdzDWsQNKUvQGp-71">
          <mxGeometry relative="1" as="geometry" />
        </mxCell>
        <mxCell id="KJa5EzMdzDWsQNKUvQGp-70" value="&lt;font style=&quot;font-size: 10px;&quot;&gt;Message Requestor asking for required info&lt;/font&gt;" style="rounded=1;whiteSpace=wrap;html=1;fontSize=12;glass=0;strokeWidth=1;shadow=0;fillColor=#f8cecc;strokeColor=#b85450;" vertex="1" parent="WIyWlLk6GJQsqaUBKTNV-1">
          <mxGeometry x="1000" y="430" width="120" height="40" as="geometry" />
        </mxCell>
        <mxCell id="KJa5EzMdzDWsQNKUvQGp-72" style="edgeStyle=orthogonalEdgeStyle;rounded=0;orthogonalLoop=1;jettySize=auto;html=1;exitX=0;exitY=0.5;exitDx=0;exitDy=0;entryX=0.5;entryY=0;entryDx=0;entryDy=0;fillColor=#d5e8d4;strokeColor=#82b366;" edge="1" parent="WIyWlLk6GJQsqaUBKTNV-1" source="KJa5EzMdzDWsQNKUvQGp-71" target="KJa5EzMdzDWsQNKUvQGp-66">
          <mxGeometry relative="1" as="geometry">
            <Array as="points">
              <mxPoint x="900" y="360" />
            </Array>
          </mxGeometry>
        </mxCell>
        <mxCell id="KJa5EzMdzDWsQNKUvQGp-80" value="&lt;font style=&quot;font-size: 10px;&quot; color=&quot;#00cc00&quot;&gt;Yes&lt;/font&gt;" style="edgeLabel;html=1;align=center;verticalAlign=middle;resizable=0;points=[];" vertex="1" connectable="0" parent="KJa5EzMdzDWsQNKUvQGp-72">
          <mxGeometry x="-0.5714" y="1" relative="1" as="geometry">
            <mxPoint x="22" y="-11" as="offset" />
          </mxGeometry>
        </mxCell>
        <mxCell id="KJa5EzMdzDWsQNKUvQGp-71" value="&lt;font style=&quot;font-size: 9px;&quot;&gt;Did requestor reply&lt;/font&gt;&lt;div&gt;&lt;font style=&quot;font-size: 9px;&quot;&gt;within&amp;nbsp;&lt;/font&gt;&lt;span style=&quot;font-size: 9px; background-color: initial;&quot;&gt;time frame?&lt;/span&gt;&lt;/div&gt;" style="rhombus;whiteSpace=wrap;html=1;" vertex="1" parent="WIyWlLk6GJQsqaUBKTNV-1">
          <mxGeometry x="1000" y="320" width="120" height="80" as="geometry" />
        </mxCell>
        <mxCell id="KJa5EzMdzDWsQNKUvQGp-74" value="&lt;span style=&quot;font-size: 10px;&quot;&gt;Ivalua Automatically&lt;/span&gt;&lt;div&gt;&lt;span style=&quot;font-size: 10px;&quot;&gt;closes ticket&lt;/span&gt;&lt;/div&gt;" style="rounded=1;whiteSpace=wrap;html=1;fontSize=12;glass=0;strokeWidth=1;shadow=0;fillColor=#fa6800;strokeColor=#C73500;fontColor=#000000;" vertex="1" parent="WIyWlLk6GJQsqaUBKTNV-1">
          <mxGeometry x="1000" y="250" width="120" height="40" as="geometry" />
        </mxCell>
        <mxCell id="KJa5EzMdzDWsQNKUvQGp-78" style="edgeStyle=orthogonalEdgeStyle;rounded=0;orthogonalLoop=1;jettySize=auto;html=1;exitX=0.5;exitY=0;exitDx=0;exitDy=0;entryX=0.5;entryY=1;entryDx=0;entryDy=0;fillColor=#f8cecc;strokeColor=#b85450;" edge="1" parent="WIyWlLk6GJQsqaUBKTNV-1">
          <mxGeometry relative="1" as="geometry">
            <mxPoint x="1059.8" y="320" as="sourcePoint" />
            <mxPoint x="1059.8" y="290" as="targetPoint" />
          </mxGeometry>
        </mxCell>
        <mxCell id="KJa5EzMdzDWsQNKUvQGp-79" value="&lt;font color=&quot;#ea6b66&quot; style=&quot;font-size: 10px;&quot;&gt;No&lt;/font&gt;" style="edgeLabel;html=1;align=center;verticalAlign=middle;resizable=0;points=[];" vertex="1" connectable="0" parent="KJa5EzMdzDWsQNKUvQGp-78">
          <mxGeometry x="-0.2667" y="1" relative="1" as="geometry">
            <mxPoint as="offset" />
          </mxGeometry>
        </mxCell>
        <mxCell id="KJa5EzMdzDWsQNKUvQGp-87" style="edgeStyle=orthogonalEdgeStyle;rounded=0;orthogonalLoop=1;jettySize=auto;html=1;exitX=0;exitY=0.5;exitDx=0;exitDy=0;entryX=1;entryY=0.5;entryDx=0;entryDy=0;fillColor=#d5e8d4;strokeColor=#82b366;" edge="1" parent="WIyWlLk6GJQsqaUBKTNV-1" source="KJa5EzMdzDWsQNKUvQGp-83" target="KJa5EzMdzDWsQNKUvQGp-86">
          <mxGeometry relative="1" as="geometry" />
        </mxCell>
        <mxCell id="KJa5EzMdzDWsQNKUvQGp-88" value="&lt;font style=&quot;font-size: 10px;&quot; color=&quot;#00cc00&quot;&gt;Yes&lt;/font&gt;" style="edgeLabel;html=1;align=center;verticalAlign=middle;resizable=0;points=[];" vertex="1" connectable="0" parent="KJa5EzMdzDWsQNKUvQGp-87">
          <mxGeometry y="1" relative="1" as="geometry">
            <mxPoint x="320" y="-11" as="offset" />
          </mxGeometry>
        </mxCell>
        <mxCell id="KJa5EzMdzDWsQNKUvQGp-176" style="edgeStyle=orthogonalEdgeStyle;rounded=0;orthogonalLoop=1;jettySize=auto;html=1;exitX=1;exitY=0.5;exitDx=0;exitDy=0;entryX=1;entryY=0.5;entryDx=0;entryDy=0;fillColor=#f8cecc;strokeColor=#b85450;" edge="1" parent="WIyWlLk6GJQsqaUBKTNV-1" source="KJa5EzMdzDWsQNKUvQGp-83" target="KJa5EzMdzDWsQNKUvQGp-169">
          <mxGeometry relative="1" as="geometry">
            <Array as="points">
              <mxPoint x="1040" y="560" />
              <mxPoint x="1040" y="1040" />
            </Array>
          </mxGeometry>
        </mxCell>
        <mxCell id="KJa5EzMdzDWsQNKUvQGp-177" value="&lt;font style=&quot;font-size: 10px;&quot; color=&quot;#ea6b66&quot;&gt;No&lt;/font&gt;" style="edgeLabel;html=1;align=center;verticalAlign=middle;resizable=0;points=[];" vertex="1" connectable="0" parent="KJa5EzMdzDWsQNKUvQGp-176">
          <mxGeometry x="-0.9591" y="-1" relative="1" as="geometry">
            <mxPoint x="-8" y="-11" as="offset" />
          </mxGeometry>
        </mxCell>
        <mxCell id="KJa5EzMdzDWsQNKUvQGp-83" value="&lt;font style=&quot;font-size: 9px;&quot;&gt;Does Team Approve&lt;br&gt;Onboarding Vendor?&lt;/font&gt;" style="rhombus;whiteSpace=wrap;html=1;" vertex="1" parent="WIyWlLk6GJQsqaUBKTNV-1">
          <mxGeometry x="840" y="520" width="120" height="80" as="geometry" />
        </mxCell>
        <mxCell id="KJa5EzMdzDWsQNKUvQGp-93" style="edgeStyle=orthogonalEdgeStyle;rounded=0;orthogonalLoop=1;jettySize=auto;html=1;exitX=0.5;exitY=1;exitDx=0;exitDy=0;entryX=0.5;entryY=0;entryDx=0;entryDy=0;" edge="1" parent="WIyWlLk6GJQsqaUBKTNV-1" source="KJa5EzMdzDWsQNKUvQGp-86" target="KJa5EzMdzDWsQNKUvQGp-92">
          <mxGeometry relative="1" as="geometry" />
        </mxCell>
        <mxCell id="KJa5EzMdzDWsQNKUvQGp-86" value="&lt;font style=&quot;font-size: 10px;&quot;&gt;Do a Modern Slavery&amp;nbsp;&lt;/font&gt;&lt;div&gt;&lt;font style=&quot;font-size: 10px;&quot;&gt;Risk Assessment&amp;nbsp;&lt;/font&gt;&lt;/div&gt;" style="rounded=1;whiteSpace=wrap;html=1;fontSize=12;glass=0;strokeWidth=1;shadow=0;" vertex="1" parent="WIyWlLk6GJQsqaUBKTNV-1">
          <mxGeometry x="40" y="540" width="120" height="40" as="geometry" />
        </mxCell>
        <mxCell id="KJa5EzMdzDWsQNKUvQGp-95" style="edgeStyle=orthogonalEdgeStyle;rounded=0;orthogonalLoop=1;jettySize=auto;html=1;exitX=0.5;exitY=1;exitDx=0;exitDy=0;entryX=0.5;entryY=0;entryDx=0;entryDy=0;fillColor=#d5e8d4;strokeColor=#82b366;" edge="1" parent="WIyWlLk6GJQsqaUBKTNV-1" source="KJa5EzMdzDWsQNKUvQGp-92" target="KJa5EzMdzDWsQNKUvQGp-94">
          <mxGeometry relative="1" as="geometry" />
        </mxCell>
        <mxCell id="KJa5EzMdzDWsQNKUvQGp-96" value="&lt;font style=&quot;font-size: 10px;&quot; color=&quot;#00cc00&quot;&gt;Yes&lt;/font&gt;" style="edgeLabel;html=1;align=center;verticalAlign=middle;resizable=0;points=[];" vertex="1" connectable="0" parent="KJa5EzMdzDWsQNKUvQGp-95">
          <mxGeometry x="-0.11" relative="1" as="geometry">
            <mxPoint as="offset" />
          </mxGeometry>
        </mxCell>
        <mxCell id="KJa5EzMdzDWsQNKUvQGp-92" value="&lt;font size=&quot;1&quot;&gt;Is the Vendor&lt;/font&gt;&lt;span style=&quot;font-size: x-small; background-color: initial;&quot;&gt;&amp;nbsp;&lt;/span&gt;&lt;div&gt;&lt;span style=&quot;font-size: x-small; background-color: initial;&quot;&gt;high risk?&lt;/span&gt;&lt;/div&gt;" style="rhombus;whiteSpace=wrap;html=1;" vertex="1" parent="WIyWlLk6GJQsqaUBKTNV-1">
          <mxGeometry x="40" y="600" width="120" height="80" as="geometry" />
        </mxCell>
        <mxCell id="KJa5EzMdzDWsQNKUvQGp-107" style="edgeStyle=orthogonalEdgeStyle;rounded=0;orthogonalLoop=1;jettySize=auto;html=1;exitX=1;exitY=0.5;exitDx=0;exitDy=0;entryX=0;entryY=0.5;entryDx=0;entryDy=0;fillColor=#d5e8d4;gradientColor=#97d077;strokeColor=#82b366;" edge="1" parent="WIyWlLk6GJQsqaUBKTNV-1" source="KJa5EzMdzDWsQNKUvQGp-94" target="KJa5EzMdzDWsQNKUvQGp-106">
          <mxGeometry relative="1" as="geometry" />
        </mxCell>
        <mxCell id="KJa5EzMdzDWsQNKUvQGp-94" value="&lt;span style=&quot;font-size: 10px;&quot;&gt;Governance team is notified of this Vendors future onboarding process&lt;/span&gt;" style="rounded=1;whiteSpace=wrap;html=1;fontSize=12;glass=0;strokeWidth=1;shadow=0;" vertex="1" parent="WIyWlLk6GJQsqaUBKTNV-1">
          <mxGeometry x="40" y="720" width="120" height="80" as="geometry" />
        </mxCell>
        <mxCell id="KJa5EzMdzDWsQNKUvQGp-184" style="edgeStyle=orthogonalEdgeStyle;rounded=0;orthogonalLoop=1;jettySize=auto;html=1;exitX=0.5;exitY=0;exitDx=0;exitDy=0;entryX=0.5;entryY=0;entryDx=0;entryDy=0;fillColor=#f8cecc;strokeColor=#b85450;" edge="1" parent="WIyWlLk6GJQsqaUBKTNV-1" source="KJa5EzMdzDWsQNKUvQGp-101" target="KJa5EzMdzDWsQNKUvQGp-104">
          <mxGeometry relative="1" as="geometry" />
        </mxCell>
        <mxCell id="KJa5EzMdzDWsQNKUvQGp-185" value="&lt;font style=&quot;font-size: 10px;&quot; color=&quot;#ea6b66&quot;&gt;No&lt;/font&gt;" style="edgeLabel;html=1;align=center;verticalAlign=middle;resizable=0;points=[];" vertex="1" connectable="0" parent="KJa5EzMdzDWsQNKUvQGp-184">
          <mxGeometry x="0.0022" y="-1" relative="1" as="geometry">
            <mxPoint x="-80" y="9" as="offset" />
          </mxGeometry>
        </mxCell>
        <mxCell id="KJa5EzMdzDWsQNKUvQGp-101" value="&lt;font style=&quot;font-size: 10px;&quot; color=&quot;#994c00&quot;&gt;Does Requestor Need&lt;/font&gt;&lt;div&gt;&lt;font style=&quot;font-size: 10px;&quot; color=&quot;#994c00&quot;&gt;us to sign anything?&lt;/font&gt;&lt;/div&gt;" style="rhombus;whiteSpace=wrap;html=1;fillColor=#ffe6cc;strokeColor=#d79b00;" vertex="1" parent="WIyWlLk6GJQsqaUBKTNV-1">
          <mxGeometry x="180" y="600" width="120" height="80" as="geometry" />
        </mxCell>
        <mxCell id="KJa5EzMdzDWsQNKUvQGp-142" style="edgeStyle=orthogonalEdgeStyle;rounded=0;orthogonalLoop=1;jettySize=auto;html=1;exitX=1;exitY=0.5;exitDx=0;exitDy=0;fillColor=#d5e8d4;strokeColor=#82b366;" edge="1" parent="WIyWlLk6GJQsqaUBKTNV-1" source="KJa5EzMdzDWsQNKUvQGp-104">
          <mxGeometry relative="1" as="geometry">
            <mxPoint x="480" y="640" as="targetPoint" />
          </mxGeometry>
        </mxCell>
        <mxCell id="KJa5EzMdzDWsQNKUvQGp-143" value="&lt;font style=&quot;font-size: 10px;&quot; color=&quot;#00cc00&quot;&gt;Yes&lt;/font&gt;" style="edgeLabel;html=1;align=center;verticalAlign=middle;resizable=0;points=[];" vertex="1" connectable="0" parent="KJa5EzMdzDWsQNKUvQGp-142">
          <mxGeometry x="-0.4303" y="1" relative="1" as="geometry">
            <mxPoint x="-2" y="-9" as="offset" />
          </mxGeometry>
        </mxCell>
        <mxCell id="KJa5EzMdzDWsQNKUvQGp-104" value="&lt;font color=&quot;#994c00&quot;&gt;&lt;span style=&quot;font-size: 10px;&quot;&gt;Is the cost &amp;lt;$2M&lt;/span&gt;&lt;/font&gt;" style="rhombus;whiteSpace=wrap;html=1;fillColor=#ffe6cc;strokeColor=#d79b00;" vertex="1" parent="WIyWlLk6GJQsqaUBKTNV-1">
          <mxGeometry x="340" y="600" width="120" height="80" as="geometry" />
        </mxCell>
        <mxCell id="KJa5EzMdzDWsQNKUvQGp-205" style="edgeStyle=orthogonalEdgeStyle;rounded=0;orthogonalLoop=1;jettySize=auto;html=1;exitX=0.5;exitY=0;exitDx=0;exitDy=0;entryX=0.5;entryY=0;entryDx=0;entryDy=0;fillColor=#f8cecc;gradientColor=#ea6b66;strokeColor=#b85450;" edge="1" parent="WIyWlLk6GJQsqaUBKTNV-1" source="KJa5EzMdzDWsQNKUvQGp-106" target="KJa5EzMdzDWsQNKUvQGp-114">
          <mxGeometry relative="1" as="geometry" />
        </mxCell>
        <mxCell id="KJa5EzMdzDWsQNKUvQGp-206" value="&lt;font style=&quot;font-size: 10px;&quot; color=&quot;#ea6b66&quot;&gt;No&lt;/font&gt;" style="edgeLabel;html=1;align=center;verticalAlign=middle;resizable=0;points=[];" vertex="1" connectable="0" parent="KJa5EzMdzDWsQNKUvQGp-205">
          <mxGeometry x="-0.9081" relative="1" as="geometry">
            <mxPoint as="offset" />
          </mxGeometry>
        </mxCell>
        <mxCell id="KJa5EzMdzDWsQNKUvQGp-106" value="&lt;font style=&quot;font-size: 10px;&quot; color=&quot;#994c00&quot;&gt;Does Requestor Need&lt;/font&gt;&lt;div&gt;&lt;font style=&quot;font-size: 10px;&quot; color=&quot;#994c00&quot;&gt;us to sign anything?&lt;/font&gt;&lt;/div&gt;" style="rhombus;whiteSpace=wrap;html=1;fillColor=#ffe6cc;strokeColor=#d79b00;" vertex="1" parent="WIyWlLk6GJQsqaUBKTNV-1">
          <mxGeometry x="180" y="720" width="120" height="80" as="geometry" />
        </mxCell>
        <mxCell id="KJa5EzMdzDWsQNKUvQGp-108" style="edgeStyle=orthogonalEdgeStyle;rounded=0;orthogonalLoop=1;jettySize=auto;html=1;exitX=1;exitY=0.5;exitDx=0;exitDy=0;fillColor=#d5e8d4;strokeColor=#82b366;entryX=0;entryY=0.5;entryDx=0;entryDy=0;" edge="1" parent="WIyWlLk6GJQsqaUBKTNV-1" source="KJa5EzMdzDWsQNKUvQGp-101" target="KJa5EzMdzDWsQNKUvQGp-104">
          <mxGeometry relative="1" as="geometry">
            <mxPoint x="330" y="640" as="targetPoint" />
            <mxPoint x="320" y="639.81" as="sourcePoint" />
          </mxGeometry>
        </mxCell>
        <mxCell id="KJa5EzMdzDWsQNKUvQGp-109" value="&lt;font style=&quot;font-size: 10px;&quot; color=&quot;#00cc00&quot;&gt;Yes&lt;/font&gt;" style="edgeLabel;html=1;align=center;verticalAlign=middle;resizable=0;points=[];" vertex="1" connectable="0" parent="KJa5EzMdzDWsQNKUvQGp-108">
          <mxGeometry x="-0.0384" relative="1" as="geometry">
            <mxPoint x="-9" y="-10" as="offset" />
          </mxGeometry>
        </mxCell>
        <mxCell id="KJa5EzMdzDWsQNKUvQGp-110" style="edgeStyle=orthogonalEdgeStyle;rounded=0;orthogonalLoop=1;jettySize=auto;html=1;exitX=1;exitY=0.5;exitDx=0;exitDy=0;fillColor=#f8cecc;strokeColor=#b85450;" edge="1" parent="WIyWlLk6GJQsqaUBKTNV-1">
          <mxGeometry relative="1" as="geometry">
            <mxPoint x="160" y="639.74" as="sourcePoint" />
            <mxPoint x="180" y="640" as="targetPoint" />
          </mxGeometry>
        </mxCell>
        <mxCell id="KJa5EzMdzDWsQNKUvQGp-111" value="&lt;font style=&quot;font-size: 10px;&quot; color=&quot;#ea6b66&quot;&gt;No&lt;/font&gt;" style="edgeLabel;html=1;align=center;verticalAlign=middle;resizable=0;points=[];" vertex="1" connectable="0" parent="KJa5EzMdzDWsQNKUvQGp-110">
          <mxGeometry x="-0.12" relative="1" as="geometry">
            <mxPoint y="-10" as="offset" />
          </mxGeometry>
        </mxCell>
        <mxCell id="KJa5EzMdzDWsQNKUvQGp-112" style="edgeStyle=orthogonalEdgeStyle;rounded=0;orthogonalLoop=1;jettySize=auto;html=1;exitX=1;exitY=0.5;exitDx=0;exitDy=0;fillColor=#d5e8d4;strokeColor=#82b366;" edge="1" parent="WIyWlLk6GJQsqaUBKTNV-1">
          <mxGeometry relative="1" as="geometry">
            <mxPoint x="340" y="759.3871428571429" as="targetPoint" />
            <mxPoint x="300" y="759.53" as="sourcePoint" />
          </mxGeometry>
        </mxCell>
        <mxCell id="KJa5EzMdzDWsQNKUvQGp-113" value="&lt;font style=&quot;font-size: 10px;&quot; color=&quot;#00cc00&quot;&gt;Yes&lt;/font&gt;" style="edgeLabel;html=1;align=center;verticalAlign=middle;resizable=0;points=[];" vertex="1" connectable="0" parent="KJa5EzMdzDWsQNKUvQGp-112">
          <mxGeometry x="-0.0384" relative="1" as="geometry">
            <mxPoint x="-9" y="-10" as="offset" />
          </mxGeometry>
        </mxCell>
        <mxCell id="KJa5EzMdzDWsQNKUvQGp-114" value="&lt;span style=&quot;font-size: 10px;&quot;&gt;Ask Legal Team for&amp;nbsp;&lt;/span&gt;&lt;div&gt;&lt;span style=&quot;font-size: 10px;&quot;&gt;guidance on next steps of approval process&lt;/span&gt;&lt;/div&gt;" style="rounded=1;whiteSpace=wrap;html=1;fontSize=12;glass=0;strokeWidth=1;shadow=0;" vertex="1" parent="WIyWlLk6GJQsqaUBKTNV-1">
          <mxGeometry x="340" y="720" width="120" height="80" as="geometry" />
        </mxCell>
        <mxCell id="KJa5EzMdzDWsQNKUvQGp-117" style="edgeStyle=orthogonalEdgeStyle;rounded=0;orthogonalLoop=1;jettySize=auto;html=1;exitX=0.5;exitY=1;exitDx=0;exitDy=0;fillColor=#f8cecc;strokeColor=#b85450;" edge="1" parent="WIyWlLk6GJQsqaUBKTNV-1">
          <mxGeometry relative="1" as="geometry">
            <mxPoint x="399.76" y="720" as="targetPoint" />
            <mxPoint x="399.76" y="680" as="sourcePoint" />
          </mxGeometry>
        </mxCell>
        <mxCell id="KJa5EzMdzDWsQNKUvQGp-118" value="&lt;font style=&quot;font-size: 10px;&quot; color=&quot;#d7807e&quot;&gt;No&lt;/font&gt;" style="edgeLabel;html=1;align=center;verticalAlign=middle;resizable=0;points=[];" vertex="1" connectable="0" parent="KJa5EzMdzDWsQNKUvQGp-117">
          <mxGeometry x="-0.0811" relative="1" as="geometry">
            <mxPoint y="-10" as="offset" />
          </mxGeometry>
        </mxCell>
        <mxCell id="KJa5EzMdzDWsQNKUvQGp-130" style="edgeStyle=orthogonalEdgeStyle;rounded=0;orthogonalLoop=1;jettySize=auto;html=1;exitX=0;exitY=0.5;exitDx=0;exitDy=0;entryX=1;entryY=0.5;entryDx=0;entryDy=0;fillColor=#f8cecc;strokeColor=#b85450;" edge="1" parent="WIyWlLk6GJQsqaUBKTNV-1" source="KJa5EzMdzDWsQNKUvQGp-121" target="KJa5EzMdzDWsQNKUvQGp-122">
          <mxGeometry relative="1" as="geometry" />
        </mxCell>
        <mxCell id="KJa5EzMdzDWsQNKUvQGp-178" value="&lt;font style=&quot;font-size: 10px;&quot; color=&quot;#ea6b66&quot;&gt;No&lt;/font&gt;" style="edgeLabel;html=1;align=center;verticalAlign=middle;resizable=0;points=[];" vertex="1" connectable="0" parent="KJa5EzMdzDWsQNKUvQGp-130">
          <mxGeometry x="-0.14" y="1" relative="1" as="geometry">
            <mxPoint x="7" y="-11" as="offset" />
          </mxGeometry>
        </mxCell>
        <mxCell id="KJa5EzMdzDWsQNKUvQGp-136" style="edgeStyle=orthogonalEdgeStyle;rounded=0;orthogonalLoop=1;jettySize=auto;html=1;exitX=1;exitY=0.5;exitDx=0;exitDy=0;entryX=0;entryY=0.5;entryDx=0;entryDy=0;" edge="1" parent="WIyWlLk6GJQsqaUBKTNV-1" source="KJa5EzMdzDWsQNKUvQGp-121" target="KJa5EzMdzDWsQNKUvQGp-135">
          <mxGeometry relative="1" as="geometry" />
        </mxCell>
        <mxCell id="KJa5EzMdzDWsQNKUvQGp-121" value="&lt;font style=&quot;font-size: 9px;&quot;&gt;Does Legal have all&lt;/font&gt;&lt;div&gt;&lt;font style=&quot;font-size: 9px;&quot;&gt;the info they need?&lt;/font&gt;&lt;/div&gt;" style="rhombus;whiteSpace=wrap;html=1;" vertex="1" parent="WIyWlLk6GJQsqaUBKTNV-1">
          <mxGeometry x="340" y="840" width="120" height="80" as="geometry" />
        </mxCell>
        <mxCell id="KJa5EzMdzDWsQNKUvQGp-144" style="edgeStyle=orthogonalEdgeStyle;rounded=0;orthogonalLoop=1;jettySize=auto;html=1;exitX=0.5;exitY=1;exitDx=0;exitDy=0;entryX=0.5;entryY=0;entryDx=0;entryDy=0;fillColor=#f8cecc;gradientColor=#ea6b66;strokeColor=#b85450;" edge="1" parent="WIyWlLk6GJQsqaUBKTNV-1" source="KJa5EzMdzDWsQNKUvQGp-122" target="KJa5EzMdzDWsQNKUvQGp-125">
          <mxGeometry relative="1" as="geometry" />
        </mxCell>
        <mxCell id="KJa5EzMdzDWsQNKUvQGp-122" value="&lt;font style=&quot;font-size: 10px;&quot;&gt;Message Requestor asking for required info&lt;/font&gt;" style="rounded=1;whiteSpace=wrap;html=1;fontSize=12;glass=0;strokeWidth=1;shadow=0;fillColor=#f8cecc;strokeColor=#b85450;" vertex="1" parent="WIyWlLk6GJQsqaUBKTNV-1">
          <mxGeometry x="180" y="860" width="120" height="40" as="geometry" />
        </mxCell>
        <mxCell id="KJa5EzMdzDWsQNKUvQGp-132" style="edgeStyle=orthogonalEdgeStyle;rounded=0;orthogonalLoop=1;jettySize=auto;html=1;exitX=0;exitY=0.5;exitDx=0;exitDy=0;entryX=1;entryY=0.5;entryDx=0;entryDy=0;fillColor=#f8cecc;strokeColor=#b85450;" edge="1" parent="WIyWlLk6GJQsqaUBKTNV-1" source="KJa5EzMdzDWsQNKUvQGp-125" target="KJa5EzMdzDWsQNKUvQGp-126">
          <mxGeometry relative="1" as="geometry" />
        </mxCell>
        <mxCell id="KJa5EzMdzDWsQNKUvQGp-181" value="&lt;font style=&quot;font-size: 10px;&quot; color=&quot;#ea6b66&quot;&gt;No&lt;/font&gt;" style="edgeLabel;html=1;align=center;verticalAlign=middle;resizable=0;points=[];" vertex="1" connectable="0" parent="KJa5EzMdzDWsQNKUvQGp-132">
          <mxGeometry x="-0.2" y="-1" relative="1" as="geometry">
            <mxPoint x="6" y="-9" as="offset" />
          </mxGeometry>
        </mxCell>
        <mxCell id="KJa5EzMdzDWsQNKUvQGp-133" style="edgeStyle=orthogonalEdgeStyle;rounded=0;orthogonalLoop=1;jettySize=auto;html=1;exitX=1;exitY=0.5;exitDx=0;exitDy=0;entryX=0.5;entryY=1;entryDx=0;entryDy=0;fillColor=#d5e8d4;strokeColor=#82b366;" edge="1" parent="WIyWlLk6GJQsqaUBKTNV-1" source="KJa5EzMdzDWsQNKUvQGp-125" target="KJa5EzMdzDWsQNKUvQGp-121">
          <mxGeometry relative="1" as="geometry" />
        </mxCell>
        <mxCell id="KJa5EzMdzDWsQNKUvQGp-179" value="&lt;font style=&quot;font-size: 10px;&quot; color=&quot;#00cc00&quot;&gt;Yes&lt;/font&gt;" style="edgeLabel;html=1;align=center;verticalAlign=middle;resizable=0;points=[];" vertex="1" connectable="0" parent="KJa5EzMdzDWsQNKUvQGp-133">
          <mxGeometry x="-0.2171" relative="1" as="geometry">
            <mxPoint x="-45" y="-10" as="offset" />
          </mxGeometry>
        </mxCell>
        <mxCell id="KJa5EzMdzDWsQNKUvQGp-125" value="&lt;font style=&quot;font-size: 9px;&quot;&gt;Did requestor reply&lt;/font&gt;&lt;div&gt;&lt;font style=&quot;font-size: 9px;&quot;&gt;within&amp;nbsp;&lt;/font&gt;&lt;span style=&quot;font-size: 9px; background-color: initial;&quot;&gt;time frame?&lt;/span&gt;&lt;/div&gt;" style="rhombus;whiteSpace=wrap;html=1;" vertex="1" parent="WIyWlLk6GJQsqaUBKTNV-1">
          <mxGeometry x="180" y="920" width="120" height="80" as="geometry" />
        </mxCell>
        <mxCell id="KJa5EzMdzDWsQNKUvQGp-126" value="&lt;span style=&quot;font-size: 10px;&quot;&gt;Ivalua Automatically&lt;/span&gt;&lt;div&gt;&lt;span style=&quot;font-size: 10px;&quot;&gt;closes ticket&lt;/span&gt;&lt;/div&gt;" style="rounded=1;whiteSpace=wrap;html=1;fontSize=12;glass=0;strokeWidth=1;shadow=0;fillColor=#fa6800;strokeColor=#C73500;fontColor=#000000;" vertex="1" parent="WIyWlLk6GJQsqaUBKTNV-1">
          <mxGeometry x="40" y="940" width="120" height="40" as="geometry" />
        </mxCell>
        <mxCell id="KJa5EzMdzDWsQNKUvQGp-134" style="edgeStyle=orthogonalEdgeStyle;rounded=0;orthogonalLoop=1;jettySize=auto;html=1;exitX=0.5;exitY=1;exitDx=0;exitDy=0;entryX=0.5;entryY=0;entryDx=0;entryDy=0;" edge="1" parent="WIyWlLk6GJQsqaUBKTNV-1" source="KJa5EzMdzDWsQNKUvQGp-114" target="KJa5EzMdzDWsQNKUvQGp-121">
          <mxGeometry relative="1" as="geometry">
            <mxPoint x="420" y="839" as="targetPoint" />
          </mxGeometry>
        </mxCell>
        <mxCell id="KJa5EzMdzDWsQNKUvQGp-141" style="edgeStyle=orthogonalEdgeStyle;rounded=0;orthogonalLoop=1;jettySize=auto;html=1;exitX=0.5;exitY=0;exitDx=0;exitDy=0;entryX=0;entryY=0.5;entryDx=0;entryDy=0;fillColor=#d5e8d4;strokeColor=#82b366;" edge="1" parent="WIyWlLk6GJQsqaUBKTNV-1" source="KJa5EzMdzDWsQNKUvQGp-135" target="KJa5EzMdzDWsQNKUvQGp-138">
          <mxGeometry relative="1" as="geometry">
            <Array as="points">
              <mxPoint x="580" y="640" />
            </Array>
          </mxGeometry>
        </mxCell>
        <mxCell id="KJa5EzMdzDWsQNKUvQGp-170" style="edgeStyle=orthogonalEdgeStyle;rounded=0;orthogonalLoop=1;jettySize=auto;html=1;exitX=0.5;exitY=1;exitDx=0;exitDy=0;entryX=0.5;entryY=0;entryDx=0;entryDy=0;fillColor=#f8cecc;strokeColor=#b85450;" edge="1" parent="WIyWlLk6GJQsqaUBKTNV-1" source="KJa5EzMdzDWsQNKUvQGp-135" target="KJa5EzMdzDWsQNKUvQGp-169">
          <mxGeometry relative="1" as="geometry" />
        </mxCell>
        <mxCell id="KJa5EzMdzDWsQNKUvQGp-135" value="&lt;font style=&quot;font-size: 9px;&quot;&gt;Does Legal Approve&lt;br&gt;Onboarding Vendor?&lt;/font&gt;" style="rhombus;whiteSpace=wrap;html=1;" vertex="1" parent="WIyWlLk6GJQsqaUBKTNV-1">
          <mxGeometry x="520" y="840" width="120" height="80" as="geometry" />
        </mxCell>
        <mxCell id="KJa5EzMdzDWsQNKUvQGp-147" style="edgeStyle=orthogonalEdgeStyle;rounded=0;orthogonalLoop=1;jettySize=auto;html=1;exitX=0.5;exitY=1;exitDx=0;exitDy=0;entryX=0;entryY=0.5;entryDx=0;entryDy=0;fillColor=#f8cecc;strokeColor=#b85450;" edge="1" parent="WIyWlLk6GJQsqaUBKTNV-1" source="KJa5EzMdzDWsQNKUvQGp-138" target="KJa5EzMdzDWsQNKUvQGp-146">
          <mxGeometry relative="1" as="geometry" />
        </mxCell>
        <mxCell id="KJa5EzMdzDWsQNKUvQGp-186" value="&lt;font style=&quot;font-size: 10px;&quot; color=&quot;#ea6b66&quot;&gt;No&lt;/font&gt;" style="edgeLabel;html=1;align=center;verticalAlign=middle;resizable=0;points=[];" vertex="1" connectable="0" parent="KJa5EzMdzDWsQNKUvQGp-147">
          <mxGeometry x="-0.8333" relative="1" as="geometry">
            <mxPoint as="offset" />
          </mxGeometry>
        </mxCell>
        <mxCell id="KJa5EzMdzDWsQNKUvQGp-150" style="edgeStyle=orthogonalEdgeStyle;rounded=0;orthogonalLoop=1;jettySize=auto;html=1;exitX=1;exitY=0.5;exitDx=0;exitDy=0;fillColor=#d5e8d4;strokeColor=#82b366;" edge="1" parent="WIyWlLk6GJQsqaUBKTNV-1" source="KJa5EzMdzDWsQNKUvQGp-138" target="KJa5EzMdzDWsQNKUvQGp-145">
          <mxGeometry relative="1" as="geometry">
            <Array as="points">
              <mxPoint x="740" y="640" />
              <mxPoint x="740" y="640" />
            </Array>
          </mxGeometry>
        </mxCell>
        <mxCell id="KJa5EzMdzDWsQNKUvQGp-175" value="&lt;font color=&quot;#00cc00&quot;&gt;Yes&lt;/font&gt;" style="edgeLabel;html=1;align=center;verticalAlign=middle;resizable=0;points=[];" vertex="1" connectable="0" parent="KJa5EzMdzDWsQNKUvQGp-150">
          <mxGeometry x="-0.02" y="-1" relative="1" as="geometry">
            <mxPoint x="-10" y="-11" as="offset" />
          </mxGeometry>
        </mxCell>
        <mxCell id="KJa5EzMdzDWsQNKUvQGp-138" value="&lt;font color=&quot;#994c00&quot;&gt;&lt;span style=&quot;font-size: 10px;&quot;&gt;Does Requestor have&lt;/span&gt;&lt;/font&gt;&lt;div&gt;&lt;font color=&quot;#994c00&quot;&gt;&lt;span style=&quot;font-size: 10px;&quot;&gt;a quote?&lt;/span&gt;&lt;/font&gt;&lt;/div&gt;" style="rhombus;whiteSpace=wrap;html=1;fillColor=#ffe6cc;strokeColor=#d79b00;" vertex="1" parent="WIyWlLk6GJQsqaUBKTNV-1">
          <mxGeometry x="600" y="600" width="120" height="80" as="geometry" />
        </mxCell>
        <mxCell id="KJa5EzMdzDWsQNKUvQGp-151" style="edgeStyle=orthogonalEdgeStyle;rounded=0;orthogonalLoop=1;jettySize=auto;html=1;exitX=0.5;exitY=1;exitDx=0;exitDy=0;fillColor=#f8cecc;strokeColor=#b85450;" edge="1" parent="WIyWlLk6GJQsqaUBKTNV-1" source="KJa5EzMdzDWsQNKUvQGp-145" target="KJa5EzMdzDWsQNKUvQGp-146">
          <mxGeometry relative="1" as="geometry" />
        </mxCell>
        <mxCell id="KJa5EzMdzDWsQNKUvQGp-187" value="&lt;font style=&quot;font-size: 10px;&quot; color=&quot;#ea6b66&quot;&gt;No&lt;/font&gt;" style="edgeLabel;html=1;align=center;verticalAlign=middle;resizable=0;points=[];" vertex="1" connectable="0" parent="KJa5EzMdzDWsQNKUvQGp-151">
          <mxGeometry x="-0.41" relative="1" as="geometry">
            <mxPoint x="15" y="-10" as="offset" />
          </mxGeometry>
        </mxCell>
        <mxCell id="KJa5EzMdzDWsQNKUvQGp-165" style="edgeStyle=orthogonalEdgeStyle;rounded=0;orthogonalLoop=1;jettySize=auto;html=1;exitX=1;exitY=0.5;exitDx=0;exitDy=0;entryX=0.5;entryY=0;entryDx=0;entryDy=0;fillColor=#d5e8d4;strokeColor=#82b366;" edge="1" parent="WIyWlLk6GJQsqaUBKTNV-1" source="KJa5EzMdzDWsQNKUvQGp-145" target="KJa5EzMdzDWsQNKUvQGp-164">
          <mxGeometry relative="1" as="geometry" />
        </mxCell>
        <mxCell id="KJa5EzMdzDWsQNKUvQGp-145" value="&lt;font color=&quot;#994c00&quot;&gt;&lt;span style=&quot;font-size: 10px;&quot;&gt;Is Quote Reasonable?&lt;/span&gt;&lt;/font&gt;" style="rhombus;whiteSpace=wrap;html=1;fillColor=#ffe6cc;strokeColor=#d79b00;" vertex="1" parent="WIyWlLk6GJQsqaUBKTNV-1">
          <mxGeometry x="760" y="600" width="120" height="80" as="geometry" />
        </mxCell>
        <mxCell id="KJa5EzMdzDWsQNKUvQGp-157" style="edgeStyle=orthogonalEdgeStyle;rounded=0;orthogonalLoop=1;jettySize=auto;html=1;exitX=0.5;exitY=1;exitDx=0;exitDy=0;entryX=0.5;entryY=0;entryDx=0;entryDy=0;fillColor=#d5e8d4;strokeColor=#82b366;" edge="1" parent="WIyWlLk6GJQsqaUBKTNV-1" source="KJa5EzMdzDWsQNKUvQGp-146" target="KJa5EzMdzDWsQNKUvQGp-152">
          <mxGeometry relative="1" as="geometry" />
        </mxCell>
        <mxCell id="KJa5EzMdzDWsQNKUvQGp-182" value="&lt;font style=&quot;font-size: 10px;&quot; color=&quot;#00cc00&quot;&gt;Yes&lt;/font&gt;" style="edgeLabel;html=1;align=center;verticalAlign=middle;resizable=0;points=[];" vertex="1" connectable="0" parent="KJa5EzMdzDWsQNKUvQGp-157">
          <mxGeometry x="-0.17" relative="1" as="geometry">
            <mxPoint as="offset" />
          </mxGeometry>
        </mxCell>
        <mxCell id="KJa5EzMdzDWsQNKUvQGp-146" value="&lt;font style=&quot;font-size: 9px;&quot;&gt;Does Requestor&amp;nbsp;&lt;span style=&quot;background-color: initial;&quot;&gt;need&lt;/span&gt;&lt;/font&gt;&lt;div&gt;&lt;font style=&quot;font-size: 9px;&quot;&gt;&lt;span style=&quot;background-color: initial;&quot;&gt;&amp;nbsp;&lt;/span&gt;&lt;span style=&quot;background-color: initial;&quot;&gt;help negotiating ?&lt;/span&gt;&lt;/font&gt;&lt;/div&gt;" style="rhombus;whiteSpace=wrap;html=1;" vertex="1" parent="WIyWlLk6GJQsqaUBKTNV-1">
          <mxGeometry x="680" y="720" width="120" height="80" as="geometry" />
        </mxCell>
        <mxCell id="KJa5EzMdzDWsQNKUvQGp-152" value="&lt;span style=&quot;font-size: 10px;&quot;&gt;Negotiate with Vendor for a reasonable quote&lt;/span&gt;" style="rounded=1;whiteSpace=wrap;html=1;fontSize=12;glass=0;strokeWidth=1;shadow=0;" vertex="1" parent="WIyWlLk6GJQsqaUBKTNV-1">
          <mxGeometry x="680" y="840" width="120" height="40" as="geometry" />
        </mxCell>
        <mxCell id="KJa5EzMdzDWsQNKUvQGp-166" style="edgeStyle=orthogonalEdgeStyle;rounded=0;orthogonalLoop=1;jettySize=auto;html=1;exitX=0.5;exitY=0;exitDx=0;exitDy=0;entryX=0.5;entryY=1;entryDx=0;entryDy=0;fillColor=#d5e8d4;strokeColor=#82b366;" edge="1" parent="WIyWlLk6GJQsqaUBKTNV-1" source="KJa5EzMdzDWsQNKUvQGp-158" target="KJa5EzMdzDWsQNKUvQGp-164">
          <mxGeometry relative="1" as="geometry" />
        </mxCell>
        <mxCell id="KJa5EzMdzDWsQNKUvQGp-167" value="&lt;font color=&quot;#00cc00&quot;&gt;Yes&lt;/font&gt;" style="edgeLabel;html=1;align=center;verticalAlign=middle;resizable=0;points=[];" vertex="1" connectable="0" parent="KJa5EzMdzDWsQNKUvQGp-166">
          <mxGeometry x="0.5564" relative="1" as="geometry">
            <mxPoint y="27" as="offset" />
          </mxGeometry>
        </mxCell>
        <mxCell id="KJa5EzMdzDWsQNKUvQGp-168" style="edgeStyle=orthogonalEdgeStyle;rounded=0;orthogonalLoop=1;jettySize=auto;html=1;exitX=0.5;exitY=1;exitDx=0;exitDy=0;entryX=1;entryY=0.5;entryDx=0;entryDy=0;fillColor=#f8cecc;strokeColor=#b85450;" edge="1" parent="WIyWlLk6GJQsqaUBKTNV-1" source="KJa5EzMdzDWsQNKUvQGp-158" target="KJa5EzMdzDWsQNKUvQGp-160">
          <mxGeometry relative="1" as="geometry" />
        </mxCell>
        <mxCell id="KJa5EzMdzDWsQNKUvQGp-173" value="&lt;font style=&quot;font-size: 10px;&quot; color=&quot;#ea6b66&quot;&gt;No&lt;/font&gt;" style="edgeLabel;html=1;align=center;verticalAlign=middle;resizable=0;points=[];" vertex="1" connectable="0" parent="KJa5EzMdzDWsQNKUvQGp-168">
          <mxGeometry x="0.25" y="1" relative="1" as="geometry">
            <mxPoint x="65" y="-41" as="offset" />
          </mxGeometry>
        </mxCell>
        <mxCell id="KJa5EzMdzDWsQNKUvQGp-158" value="&lt;span style=&quot;color: rgb(153, 76, 0); font-size: 10px;&quot;&gt;Is Quote Reasonable?&lt;/span&gt;" style="rhombus;whiteSpace=wrap;html=1;fillColor=#ffe6cc;strokeColor=#d79b00;" vertex="1" parent="WIyWlLk6GJQsqaUBKTNV-1">
          <mxGeometry x="880" y="820" width="120" height="80" as="geometry" />
        </mxCell>
        <mxCell id="KJa5EzMdzDWsQNKUvQGp-159" style="edgeStyle=orthogonalEdgeStyle;rounded=0;orthogonalLoop=1;jettySize=auto;html=1;exitX=1;exitY=0.5;exitDx=0;exitDy=0;entryX=0;entryY=0.5;entryDx=0;entryDy=0;" edge="1" parent="WIyWlLk6GJQsqaUBKTNV-1" source="KJa5EzMdzDWsQNKUvQGp-152" target="KJa5EzMdzDWsQNKUvQGp-158">
          <mxGeometry relative="1" as="geometry" />
        </mxCell>
        <mxCell id="KJa5EzMdzDWsQNKUvQGp-163" style="edgeStyle=orthogonalEdgeStyle;rounded=0;orthogonalLoop=1;jettySize=auto;html=1;exitX=0.5;exitY=0.043;exitDx=0;exitDy=0;entryX=0.5;entryY=1;entryDx=0;entryDy=0;fillColor=#d5e8d4;strokeColor=#82b366;exitPerimeter=0;" edge="1" parent="WIyWlLk6GJQsqaUBKTNV-1" source="KJa5EzMdzDWsQNKUvQGp-160" target="KJa5EzMdzDWsQNKUvQGp-152">
          <mxGeometry relative="1" as="geometry" />
        </mxCell>
        <mxCell id="KJa5EzMdzDWsQNKUvQGp-183" value="&lt;font style=&quot;font-size: 10px;&quot; color=&quot;#00cc00&quot;&gt;Yes&lt;/font&gt;" style="edgeLabel;html=1;align=center;verticalAlign=middle;resizable=0;points=[];" vertex="1" connectable="0" parent="KJa5EzMdzDWsQNKUvQGp-163">
          <mxGeometry x="-0.0221" y="-1" relative="1" as="geometry">
            <mxPoint as="offset" />
          </mxGeometry>
        </mxCell>
        <mxCell id="KJa5EzMdzDWsQNKUvQGp-171" style="edgeStyle=orthogonalEdgeStyle;rounded=0;orthogonalLoop=1;jettySize=auto;html=1;exitX=0;exitY=0.5;exitDx=0;exitDy=0;entryX=0.5;entryY=0;entryDx=0;entryDy=0;fillColor=#f8cecc;strokeColor=#b85450;" edge="1" parent="WIyWlLk6GJQsqaUBKTNV-1" source="KJa5EzMdzDWsQNKUvQGp-160" target="KJa5EzMdzDWsQNKUvQGp-169">
          <mxGeometry relative="1" as="geometry" />
        </mxCell>
        <mxCell id="KJa5EzMdzDWsQNKUvQGp-172" value="&lt;font style=&quot;font-size: 10px;&quot; color=&quot;#ea6b66&quot;&gt;No&lt;/font&gt;" style="edgeLabel;html=1;align=center;verticalAlign=middle;resizable=0;points=[];" vertex="1" connectable="0" parent="KJa5EzMdzDWsQNKUvQGp-171">
          <mxGeometry x="0.6714" relative="1" as="geometry">
            <mxPoint y="-37" as="offset" />
          </mxGeometry>
        </mxCell>
        <mxCell id="KJa5EzMdzDWsQNKUvQGp-160" value="&lt;font color=&quot;#994c00&quot;&gt;&lt;span style=&quot;font-size: 10px;&quot;&gt;Is a compromise&lt;/span&gt;&lt;/font&gt;&lt;div&gt;&lt;font color=&quot;#994c00&quot;&gt;&lt;span style=&quot;font-size: 10px;&quot;&gt;foreseeable ?&lt;/span&gt;&lt;/font&gt;&lt;/div&gt;" style="rhombus;whiteSpace=wrap;html=1;fillColor=#ffe6cc;strokeColor=#d79b00;" vertex="1" parent="WIyWlLk6GJQsqaUBKTNV-1">
          <mxGeometry x="680" y="920" width="120" height="80" as="geometry" />
        </mxCell>
        <mxCell id="KJa5EzMdzDWsQNKUvQGp-164" value="&lt;font style=&quot;font-size: 10px;&quot;&gt;&lt;b&gt;&lt;u&gt;Approve&lt;/u&gt;&lt;/b&gt;&amp;nbsp;&lt;/font&gt;&lt;div&gt;&lt;font style=&quot;font-size: 10px;&quot;&gt;Vendor Onboarding Process&lt;/font&gt;&lt;/div&gt;" style="rounded=1;whiteSpace=wrap;html=1;fontSize=12;glass=0;strokeWidth=1;shadow=0;fillColor=#008a00;strokeColor=#005700;fontColor=#ffffff;" vertex="1" parent="WIyWlLk6GJQsqaUBKTNV-1">
          <mxGeometry x="880" y="680" width="120" height="80" as="geometry" />
        </mxCell>
        <mxCell id="KJa5EzMdzDWsQNKUvQGp-169" value="&lt;span style=&quot;font-size: 10px;&quot;&gt;Write Close Notes and &lt;b&gt;&lt;u&gt;Reject&lt;/u&gt;&lt;/b&gt;&amp;nbsp;&lt;/span&gt;&lt;div&gt;&lt;span style=&quot;font-size: 10px;&quot;&gt;Vendor&amp;nbsp;&lt;/span&gt;&lt;span style=&quot;font-size: 10px; background-color: initial;&quot;&gt;Onboarding Process&lt;/span&gt;&lt;/div&gt;" style="rounded=1;whiteSpace=wrap;html=1;fontSize=12;glass=0;strokeWidth=1;shadow=0;fillColor=#FF9999;strokeColor=#C73500;fontColor=#000000;" vertex="1" parent="WIyWlLk6GJQsqaUBKTNV-1">
          <mxGeometry x="520" y="1000" width="120" height="80" as="geometry" />
        </mxCell>
        <mxCell id="KJa5EzMdzDWsQNKUvQGp-174" value="&lt;font color=&quot;#00cc00&quot;&gt;Yes&lt;/font&gt;" style="edgeLabel;html=1;align=center;verticalAlign=middle;resizable=0;points=[];" vertex="1" connectable="0" parent="WIyWlLk6GJQsqaUBKTNV-1">
          <mxGeometry x="890" y="630" as="geometry" />
        </mxCell>
        <mxCell id="KJa5EzMdzDWsQNKUvQGp-188" value="&lt;font style=&quot;font-size: 10px;&quot; color=&quot;#ea6b66&quot;&gt;No&lt;/font&gt;" style="edgeLabel;html=1;align=center;verticalAlign=middle;resizable=0;points=[];" vertex="1" connectable="0" parent="WIyWlLk6GJQsqaUBKTNV-1">
          <mxGeometry x="670" y="949.8" as="geometry" />
        </mxCell>
        <mxCell id="KJa5EzMdzDWsQNKUvQGp-189" value="&lt;font style=&quot;font-size: 10px;&quot; color=&quot;#00cc00&quot;&gt;Yes&lt;/font&gt;" style="edgeLabel;html=1;align=center;verticalAlign=middle;resizable=0;points=[];" vertex="1" connectable="0" parent="WIyWlLk6GJQsqaUBKTNV-1">
          <mxGeometry x="579.9999999999999" y="820" as="geometry" />
        </mxCell>
        <mxCell id="KJa5EzMdzDWsQNKUvQGp-195" style="edgeStyle=orthogonalEdgeStyle;rounded=0;orthogonalLoop=1;jettySize=auto;html=1;exitX=1;exitY=0.5;exitDx=0;exitDy=0;fillColor=#d5e8d4;gradientColor=#97d077;strokeColor=#82b366;" edge="1" parent="WIyWlLk6GJQsqaUBKTNV-1" source="KJa5EzMdzDWsQNKUvQGp-192">
          <mxGeometry relative="1" as="geometry">
            <mxPoint x="600" y="639.8571428571429" as="targetPoint" />
          </mxGeometry>
        </mxCell>
        <mxCell id="KJa5EzMdzDWsQNKUvQGp-192" value="&lt;font style=&quot;font-size: 9px;&quot;&gt;Fortescue T&amp;amp;C&#39;s&lt;/font&gt;&lt;div&gt;&lt;font style=&quot;font-size: 9px;&quot;&gt;are non-negotiable&lt;/font&gt;&lt;/div&gt;" style="rounded=1;whiteSpace=wrap;html=1;fontSize=12;glass=0;strokeWidth=1;shadow=0;fillColor=#d5e8d4;gradientColor=#97d077;strokeColor=#82b366;" vertex="1" parent="WIyWlLk6GJQsqaUBKTNV-1">
          <mxGeometry x="480" y="620" width="80" height="40" as="geometry" />
        </mxCell>
        <mxCell id="KJa5EzMdzDWsQNKUvQGp-202" value="" style="edgeStyle=orthogonalEdgeStyle;rounded=0;orthogonalLoop=1;jettySize=auto;html=1;exitX=1;exitY=0.5;exitDx=0;exitDy=0;fillColor=#f8cecc;gradientColor=#ea6b66;strokeColor=#b85450;" edge="1" parent="WIyWlLk6GJQsqaUBKTNV-1" source="KJa5EzMdzDWsQNKUvQGp-146" target="KJa5EzMdzDWsQNKUvQGp-201">
          <mxGeometry relative="1" as="geometry">
            <mxPoint x="880" y="860" as="targetPoint" />
            <mxPoint x="800" y="760" as="sourcePoint" />
            <Array as="points" />
          </mxGeometry>
        </mxCell>
        <mxCell id="KJa5EzMdzDWsQNKUvQGp-203" value="&lt;font style=&quot;font-size: 10px;&quot; color=&quot;#ea6b66&quot;&gt;No&lt;/font&gt;" style="edgeLabel;html=1;align=center;verticalAlign=middle;resizable=0;points=[];" vertex="1" connectable="0" parent="KJa5EzMdzDWsQNKUvQGp-202">
          <mxGeometry x="-0.8005" y="-1" relative="1" as="geometry">
            <mxPoint y="-11" as="offset" />
          </mxGeometry>
        </mxCell>
        <mxCell id="KJa5EzMdzDWsQNKUvQGp-204" style="edgeStyle=orthogonalEdgeStyle;rounded=0;orthogonalLoop=1;jettySize=auto;html=1;exitX=0.5;exitY=1;exitDx=0;exitDy=0;entryX=0;entryY=0.5;entryDx=0;entryDy=0;" edge="1" parent="WIyWlLk6GJQsqaUBKTNV-1" source="KJa5EzMdzDWsQNKUvQGp-201" target="KJa5EzMdzDWsQNKUvQGp-158">
          <mxGeometry relative="1" as="geometry" />
        </mxCell>
        <mxCell id="KJa5EzMdzDWsQNKUvQGp-201" value="&lt;font style=&quot;font-size: 9px;&quot;&gt;Wait for Quote&lt;/font&gt;&lt;div&gt;&lt;font style=&quot;font-size: 9px;&quot;&gt;from Requestor&lt;/font&gt;&lt;/div&gt;" style="rounded=1;whiteSpace=wrap;html=1;fontSize=12;glass=0;strokeWidth=1;shadow=0;" vertex="1" parent="WIyWlLk6GJQsqaUBKTNV-1">
          <mxGeometry x="800" y="780" width="80" height="40" as="geometry" />
        </mxCell>
      </root>
    </mxGraphModel>
  </diagram>
</mxfile>
